<?xml version="1.0" encoding="UTF-8"?>
<svg version="1.1" xmlns="http://www.w3.org/2000/svg" width="226" height="70">
<path d="M0 0 C74.58 0 149.16 0 226 0 C226 23.1 226 46.2 226 70 C151.42 70 76.84 70 0 70 C0 46.9 0 23.8 0 0 Z " fill="#FDFEFE" transform="translate(0,0)"/>
<path d="M0 0 C1.9490625 0.2475 1.9490625 0.2475 3.9375 0.5 C11.10484937 1.28762081 17.89295693 1.20970946 25 0 C25 1.65 25 3.3 25 5 C25.721875 5.226875 26.44375 5.45375 27.1875 5.6875 C33.50275911 8.63462092 37.3231425 14.47859926 40.25 20.625 C42.29409398 29.82342293 41.43936309 37.02856259 36.83984375 45.296875 C32.86949356 51.13017083 27.11707252 56.56376194 20 58 C11.50661492 58.82963468 3.34453089 58.74334287 -4 54 C-10.33557802 48.5003663 -15.27332718 41.76326721 -16.33984375 33.3046875 C-16.6968993 23.05005218 -14.01114502 16.4710175 -7.1328125 8.9453125 C-5 7 -5 7 -2.2421875 5.4921875 C-1.13230469 4.75355469 -1.13230469 4.75355469 0 4 C0 2.68 0 1.36 0 0 Z " fill="#F9FBFD" transform="translate(28,7)"/>
<path d="M0 0 C1.43861294 0.08746284 2.87597508 0.19565348 4.3125 0.3125 C5.11300781 0.37050781 5.91351563 0.42851563 6.73828125 0.48828125 C9 1 9 1 12 4 C9.36 6.64 6.72 9.28 4 12 C3.34 11.67 2.68 11.34 2 11 C2 10.34 2 9.68 2 9 C-3.77489951 12.70042104 -8.22107067 16.16224038 -10 23 C-10.91635566 30.62675177 -10.86295599 37.75373981 -6 44 C-1.03136436 49.2694005 4.36251722 53.0620525 11.75 53.5 C16.83069047 53.36933171 20.49158166 51.65883601 24.87109375 49.19140625 C27 48 27 48 30 47 C31.11935073 45.35369807 31.11935073 45.35369807 32 43 C32.53625 41.845 33.0725 40.69 33.625 39.5 C35.85457815 33.32843574 36.29661986 26.59105006 34.05078125 20.37109375 C31.37302529 15.24365568 28.2494531 11.62472655 23 9 C23 10.32 23 11.64 23 13 C21 13 21 13 19.2734375 11.35546875 C18.64695313 10.64003906 18.02046875 9.92460937 17.375 9.1875 C16.74335937 8.47980469 16.11171875 7.77210937 15.4609375 7.04296875 C14 5 14 5 14 2 C17.82320557 0.57741188 20.91281305 -0.24042276 25 0 C25 1.65 25 3.3 25 5 C25.721875 5.226875 26.44375 5.45375 27.1875 5.6875 C33.50275911 8.63462092 37.3231425 14.47859926 40.25 20.625 C42.29409398 29.82342293 41.43936309 37.02856259 36.83984375 45.296875 C32.86949356 51.13017083 27.11707252 56.56376194 20 58 C11.50661492 58.82963468 3.34453089 58.74334287 -4 54 C-10.33557802 48.5003663 -15.27332718 41.76326721 -16.33984375 33.3046875 C-16.6968993 23.05005218 -14.01114502 16.4710175 -7.1328125 8.9453125 C-5 7 -5 7 -2.2421875 5.4921875 C-1.13230469 4.75355469 -1.13230469 4.75355469 0 4 C0 2.68 0 1.36 0 0 Z " fill="#3F8CDB" transform="translate(28,7)"/>
<path d="M0 0 C5.91432217 1.68980633 8.49806966 5.82479054 11.8125 10.625 C14.1627542 17.30466982 14.01306473 24.37271256 11.3125 30.9375 C7.91388912 37.49788477 2.95186712 41.59963833 -4 44 C-6.4504121 44.2912754 -8.52316315 44.20640307 -11 44 C-7.25040827 38.24169842 -7.25040827 38.24169842 -4.75390625 35.83203125 C-2.82473898 32.71700614 -2.80089851 32.29500491 -3.44921875 28.8984375 C-3.83708693 27.38403069 -4.25076304 25.87604315 -4.6875 24.375 C-4.88794922 23.611875 -5.08839844 22.84875 -5.29492188 22.0625 C-6.10657087 19.00877109 -7.00081083 15.99756752 -8 13 C-8.56910569 6.7398374 -8.56910569 6.7398374 -6.125 3.5625 C-4 2 -4 2 -2 2 C-2 2.66 -2 3.32 -2 4 C-1.34 4 -0.68 4 0 4 C0 2.68 0 1.36 0 0 Z " fill="#FCFDFE" transform="translate(51,16)"/>
<path d="M0 0 C1.32 0 2.64 0 4 0 C5.00506909 3.93245478 5.99427056 7.8666322 6.9453125 11.8125 C7.53774596 14.24745589 8.18861445 16.55841759 8.9921875 18.9375 C9.79632885 21.52401651 10.26303976 23.29703976 10 26 C7.77251566 29.78567761 5.08541667 32.88809907 2 36 C1.34 35.67 0.68 35.34 0 35 C0 34.34 0 33.68 0 33 C-0.99 32.67 -1.98 32.34 -3 32 C-5.87708733 28.59329958 -7.13767768 26.69517485 -6.77197266 22.19238281 C-6.08180215 18.95385109 -5.2388873 15.80389138 -4.3125 12.625 C-4.01666016 11.52027344 -3.72082031 10.41554688 -3.41601562 9.27734375 C-1.22111422 1.22111422 -1.22111422 1.22111422 0 0 Z " fill="#9BC3EC" transform="translate(39,23)"/>
<path d="M0 0 C1.32 0 2.64 0 4 0 C4 6.27 4 12.54 4 19 C2.35 18.67 0.7 18.34 -1 18 C-1.99 18.33 -2.98 18.66 -4 19 C-9.15235457 19.58171745 -9.15235457 19.58171745 -12 19 C-15.29420787 16.11756811 -16.76884408 14.25851556 -17.5625 9.9375 C-16.87020639 6.32218892 -15.54408967 4.61891584 -13 2 C-10.01002175 0.50501087 -7.29957225 0.88422554 -4 1 C-3.01 1.33 -2.02 1.66 -1 2 C-0.67 1.34 -0.34 0.68 0 0 Z " fill="#F9FBFD" transform="translate(164,22)"/>
<path d="M0 0 C1.32 0 2.64 0 4 0 C4.33 1.98 4.66 3.96 5 6 C5.78375 5.95875 6.5675 5.9175 7.375 5.875 C10 6 10 6 12 8 C12.44370229 13.59064885 12.44370229 13.59064885 12 16 C11.01 16.99 10.02 17.98 9 19 C6.03 19 3.06 19 0 19 C0 12.73 0 6.46 0 0 Z " fill="#5096DE" transform="translate(199,22)"/>
<path d="M0 0 C2.60444348 -0.05394705 5.20776998 -0.09364469 7.8125 -0.125 C8.55048828 -0.14175781 9.28847656 -0.15851562 10.04882812 -0.17578125 C13.91246426 -0.21074628 15.70903668 -0.19397555 19 2 C19.29296875 4.6015625 19.29296875 4.6015625 19.1875 7.625 C19.16042969 8.62789062 19.13335937 9.63078125 19.10546875 10.6640625 C19.07066406 11.43492188 19.03585938 12.20578125 19 13 C17.68 13 16.36 13 15 13 C15 9.7 15 6.4 15 3 C13.68 3 12.36 3 11 3 C11 6.3 11 9.6 11 13 C10.01 13 9.02 13 8 13 C8 9.7 8 6.4 8 3 C6.68 3 5.36 3 4 3 C4 6.3 4 9.6 4 13 C2.68 13 1.36 13 0 13 C0 8.71 0 4.42 0 0 Z " fill="#5297DE" transform="translate(178,28)"/>
<path d="M0 0 C0.66 0.33 1.32 0.66 2 1 C2 1.99 2 2.98 2 4 C1.36191406 3.98839844 0.72382813 3.97679687 0.06640625 3.96484375 C-0.75988281 3.95582031 -1.58617187 3.94679688 -2.4375 3.9375 C-3.26121094 3.92589844 -4.08492187 3.91429687 -4.93359375 3.90234375 C-6.99163938 3.76732652 -6.99163938 3.76732652 -8 5 C-8.30523962 9.65088715 -8.30523962 9.65088715 -7 14 C-4.03 14 -1.06 14 2 14 C2 14.99 2 15.98 2 17 C-1.24441291 18.62220646 -4.50540703 18.70159132 -8 18 C-11.29420787 15.11756811 -12.76884408 13.25851556 -13.5625 8.9375 C-12.87020639 5.32218892 -11.54408967 3.61891584 -9 1 C-6.01405576 -0.49297212 -3.29146376 -0.11755228 0 0 Z " fill="#4D94DD" transform="translate(160,23)"/>
<path d="M0 0 C0.66 0.33 1.32 0.66 2 1 C2 1.99 2 2.98 2 4 C1.36191406 3.98839844 0.72382812 3.97679687 0.06640625 3.96484375 C-0.75988281 3.95582031 -1.58617188 3.94679688 -2.4375 3.9375 C-3.26121094 3.92589844 -4.08492187 3.91429687 -4.93359375 3.90234375 C-6.99163938 3.76732652 -6.99163938 3.76732652 -8 5 C-8.30523962 9.65088715 -8.30523962 9.65088715 -7 14 C-4.03 14 -1.06 14 2 14 C2 14.99 2 15.98 2 17 C-1.24441291 18.62220646 -4.50540703 18.70159132 -8 18 C-11.29420787 15.11756811 -12.76884408 13.25851556 -13.5625 8.9375 C-12.87020639 5.32218892 -11.54408967 3.61891584 -9 1 C-6.01405576 -0.49297212 -3.29146376 -0.11755228 0 0 Z " fill="#4D94DD" transform="translate(83,23)"/>
<path d="M0 0 C0.33 1.98 0.66 3.96 1 6 C-1.64 6 -4.28 6 -7 6 C-7 6.99 -7 7.98 -7 9 C-4.36 9 -1.72 9 1 9 C1 9.66 1 10.32 1 11 C-1.84083641 12.42041821 -3.85477278 12.31452272 -7 12 C-9.4375 10.4375 -9.4375 10.4375 -11 8 C-10.9375 4.375 -10.9375 4.375 -10 1 C-6.1496895 -1.56687367 -4.41430237 -0.83288724 0 0 Z " fill="#4791DC" transform="translate(121,29)"/>
<path d="M0 0 C2 2 2 2 2.125 4.625 C2.08375 5.40875 2.0425 6.1925 2 7 C-0.64 7 -3.28 7 -6 7 C-5.67 7.66 -5.34 8.32 -5 9 C-2.67843403 9.40729228 -0.3431213 9.74438677 2 10 C2 10.66 2 11.32 2 12 C-0.79870027 13.39935013 -2.90498792 13.25265405 -6 13 C-7.875 11.9375 -7.875 11.9375 -9 10 C-9.63316583 4.09045226 -9.63316583 4.09045226 -7.875 1.0625 C-5.15050101 -0.48138276 -3.07108055 -0.3267107 0 0 Z " fill="#3686D9" transform="translate(133,28)"/>
<path d="M0 0 C2 2 2 2 2.1953125 4.6015625 C2.17210938 5.59929688 2.14890625 6.59703125 2.125 7.625 C2.10695313 8.62789062 2.08890625 9.63078125 2.0703125 10.6640625 C2.03550781 11.82035156 2.03550781 11.82035156 2 13 C0.54207116 13.05399736 -0.91642712 13.09279177 -2.375 13.125 C-3.18710938 13.14820313 -3.99921875 13.17140625 -4.8359375 13.1953125 C-7 13 -7 13 -9 11 C-8.625 8.875 -8.625 8.875 -8 7 C-4.535 6.505 -4.535 6.505 -1 6 C-1 5.01 -1 4.02 -1 3 C-3.31 3 -5.62 3 -8 3 C-8 2.34 -8 1.68 -8 1 C-5.23749964 -0.38125018 -3.05268901 -0.19079306 0 0 Z " fill="#4B93DD" transform="translate(96,28)"/>
<path d="M0 0 C2.6755118 1.55352298 4.1495043 3.63457742 5.9375 6.125 C4.75 8.125 4.75 8.125 2.9375 10.125 C0.5625 10.6875 0.5625 10.6875 -2.0625 10.125 C-4.875 7.625 -4.875 7.625 -7.0625 5.125 C-2.7065281 0.16403201 -2.7065281 0.16403201 0 0 Z " fill="#A2C7ED" transform="translate(40.0625,11.875)"/>
<path d="M0 0 C0.99 0 1.98 0 3 0 C3 6.27 3 12.54 3 19 C2.01 19 1.02 19 0 19 C0 12.73 0 6.46 0 0 Z " fill="#3E8CDB" transform="translate(165,22)"/>
<path d="M0 0 C2.475 0.495 2.475 0.495 5 1 C4.67 4.96 4.34 8.92 4 13 C2.68 13 1.36 13 0 13 C0 8.71 0 4.42 0 0 Z " fill="#589BE0" transform="translate(178,28)"/>
<path d="M0 0 C2.64 0 5.28 0 8 0 C8 0.66 8 1.32 8 2 C7.35546875 2.23460937 6.7109375 2.46921875 6.046875 2.7109375 C3.7922092 3.81161073 3.7922092 3.81161073 3.390625 6.1640625 C3.34421875 6.97617187 3.2978125 7.78828125 3.25 8.625 C3.19328125 9.44226562 3.1365625 10.25953125 3.078125 11.1015625 C3.05234375 11.72804688 3.0265625 12.35453125 3 13 C2.01 13 1.02 13 0 13 C0 8.71 0 4.42 0 0 Z " fill="#418DDB" transform="translate(138,28)"/>
<path d="M0 0 C2.64 0 5.28 0 8 0 C8 0.66 8 1.32 8 2 C7.35546875 2.23460937 6.7109375 2.46921875 6.046875 2.7109375 C3.7922092 3.81161073 3.7922092 3.81161073 3.390625 6.1640625 C3.34421875 6.97617187 3.2978125 7.78828125 3.25 8.625 C3.19328125 9.44226562 3.1365625 10.25953125 3.078125 11.1015625 C3.05234375 11.72804688 3.0265625 12.35453125 3 13 C2.01 13 1.02 13 0 13 C0 8.71 0 4.42 0 0 Z " fill="#418DDB" transform="translate(101,28)"/>
<path d="M0 0 C0.33 0 0.66 0 1 0 C1 4.29 1 8.58 1 13 C0.01 12.67 -0.98 12.34 -2 12 C-2 11.34 -2 10.68 -2 10 C-4.31 10 -6.62 10 -9 10 C-9.33 9.01 -9.66 8.02 -10 7 C-7.36 7 -4.72 7 -2 7 C-1.855625 6.401875 -1.71125 5.80375 -1.5625 5.1875 C-1.1127561 3.43849596 -0.57107659 1.71322977 0 0 Z " fill="#EAF2FB" transform="translate(137,28)"/>
<path d="M0 0 C2.4375 1.3125 2.4375 1.3125 3.25 3.4375 C3.311875 4.05625 3.37375 4.675 3.4375 5.3125 C0.0625 5.9375 0.0625 5.9375 -3.5625 6.3125 C-4.2225 5.6525 -4.8825 4.9925 -5.5625 4.3125 C-5.3125 2.25 -5.3125 2.25 -4.5625 0.3125 C-2.5625 -0.6875 -2.5625 -0.6875 0 0 Z " fill="#6EA8E4" transform="translate(92.5625,34.6875)"/>
<path d="M0 0 C0.99 0 1.98 0 3 0 C3 4.29 3 8.58 3 13 C2.01 13 1.02 13 0 13 C0 8.71 0 4.42 0 0 Z " fill="#3B8ADA" transform="translate(172,28)"/>
<path d="M0 0 C0 1.65 0 3.3 0 5 C-1.99954746 5.04254356 -4.00041636 5.04080783 -6 5 C-6.33 4.67 -6.66 4.34 -7 4 C-7.33 5.98 -7.66 7.96 -8 10 C-8.33 10 -8.66 10 -9 10 C-9.36103152 3.6217765 -9.36103152 3.6217765 -7.875 1.0625 C-5.214973 -0.44484863 -2.99793795 -0.19986253 0 0 Z " fill="#6FA9E4" transform="translate(133,28)"/>
<path d="M0 0 C0.33 0 0.66 0 1 0 C1.36090226 7.33834586 1.36090226 7.33834586 -0.125 10.0625 C-2.93542716 11.46771358 -5.03208058 10.72549141 -8 10 C-7.67 9.34 -7.34 8.68 -7 8 C-4.9375 7.375 -4.9375 7.375 -3 7 C-2.67 5.68 -2.34 4.36 -2 3 C-1.34 3 -0.68 3 0 3 C0 2.01 0 1.02 0 0 Z " fill="#4791DC" transform="translate(210,30)"/>
<path d="M0 0 C1.65 0 3.3 0 5 0 C5 1.98 5 3.96 5 6 C3.35 6.33 1.7 6.66 0 7 C0 4.69 0 2.38 0 0 Z " fill="#F5F9FD" transform="translate(203,31)"/>
<path d="M0 0 C0.66 0.66 1.32 1.32 2 2 C4.32275177 2.40047444 6.65739357 2.7397104 9 3 C9 3.66 9 4.32 9 5 C6.29120665 6.35439668 3.99066732 6.06501451 1 6 C-0.0625 4.125 -0.0625 4.125 -1 2 C-0.67 1.34 -0.34 0.68 0 0 Z " fill="#4A92DD" transform="translate(126,35)"/>
<path d="M0 0 C0.99 0 1.98 0 3 0 C3 2.97 3 5.94 3 9 C2.01 9 1.02 9 0 9 C0 6.03 0 3.06 0 0 Z " fill="#3E8BDB" transform="translate(186,32)"/>
<path d="M0 0 C-0.33 1.32 -0.66 2.64 -1 4 C-3.31 4 -5.62 4 -8 4 C-8 3.01 -8 2.02 -8 1 C-5.23735711 0.40267181 -2.83967231 0 0 0 Z " fill="#86B6E8" transform="translate(121,29)"/>
<path d="M0 0 C0.33 0 0.66 0 1 0 C1 2.97 1 5.94 1 9 C0.67 8.34 0.34 7.68 0 7 C-0.66 6.67 -1.32 6.34 -2 6 C-1.67 5.34 -1.34 4.68 -1 4 C-2.32 3.67 -3.64 3.34 -5 3 C-3.35 2.67 -1.7 2.34 0 2 C0 1.34 0 0.68 0 0 Z " fill="#3486D9" transform="translate(96,32)"/>
<path d="M0 0 C0.99 0 1.98 0 3 0 C1.84826645 2.46800047 0.95216435 4.04783565 -1 6 C-1.66 6 -2.32 6 -3 6 C-2.42655063 3.13275314 -2.1385485 2.1385485 0 0 Z " fill="#3E8BDA" transform="translate(151,24)"/>
<path d="M0 0 C0.99 0 1.98 0 3 0 C1.84826645 2.46800047 0.95216435 4.04783565 -1 6 C-1.66 6 -2.32 6 -3 6 C-2.42655063 3.13275314 -2.1385485 2.1385485 0 0 Z " fill="#3E8BDA" transform="translate(74,24)"/>
</svg>
